<?xml version="1.0" encoding="UTF-8"?>
<svg version="1.1" xmlns="http://www.w3.org/2000/svg" width="256" height="256">
<path d="M0 0 C10.70361045 8.96171214 19.06787813 18.86801788 25.90771484 31.07543945 C26.61541016 32.30520508 26.61541016 32.30520508 27.33740234 33.55981445 C32.46479804 43.05027356 35.76389115 53.52194804 36.47021484 64.26293945 C36.74387453 67.40139421 36.74387453 67.40139421 37.90771484 70.07543945 C41.61879714 72.74131186 45.55364485 73.8207868 49.90771484 75.07543945 C51.67103529 75.81529419 53.42325313 76.58275214 55.15771484 77.38793945 C55.88474609 77.71407227 56.61177734 78.04020508 57.36083984 78.3762207 C57.87130859 78.60696289 58.38177734 78.83770508 58.90771484 79.07543945 C58.90771484 79.40543945 58.90771484 79.73543945 58.90771484 80.07543945 C43.72771484 80.07543945 28.54771484 80.07543945 12.90771484 80.07543945 C12.90771484 65.88543945 12.90771484 51.69543945 12.90771484 37.07543945 C8.61771484 37.07543945 4.32771484 37.07543945 -0.09228516 37.07543945 C-0.09228516 51.26543945 -0.09228516 65.45543945 -0.09228516 80.07543945 C-7.35228516 80.07543945 -14.61228516 80.07543945 -22.09228516 80.07543945 C-22.09228516 70.83543945 -22.09228516 61.59543945 -22.09228516 52.07543945 C-26.38228516 52.07543945 -30.67228516 52.07543945 -35.09228516 52.07543945 C-35.09228516 61.31543945 -35.09228516 70.55543945 -35.09228516 80.07543945 C-39.38228516 80.40543945 -43.67228516 80.73543945 -48.09228516 81.07543945 C-51.00647858 83.40025331 -51.00647858 83.40025331 -52.34228516 86.63793945 C-52.86306641 87.64985352 -53.38384766 88.66176758 -53.92041016 89.7043457 C-54.30712891 90.48680664 -54.69384766 91.26926758 -55.09228516 92.07543945 C-55.42228516 92.07543945 -55.75228516 92.07543945 -56.09228516 92.07543945 C-56.09228516 69.96543945 -56.09228516 47.85543945 -56.09228516 25.07543945 C-60.71228516 25.07543945 -65.33228516 25.07543945 -70.09228516 25.07543945 C-70.09006454 26.21327377 -70.08784393 27.35110809 -70.08555603 28.52342224 C-70.06532582 39.22174694 -70.0503136 49.92006779 -70.04047298 60.61840725 C-70.03524385 66.11914807 -70.02814565 71.6198735 -70.0168457 77.12060547 C-70.00601791 82.42440506 -70.00000855 87.72818981 -69.99740791 93.03199959 C-69.99555347 95.06029558 -69.99193249 97.08859071 -69.9865551 99.11688042 C-69.9793461 101.94740459 -69.97829415 104.77786664 -69.97875977 107.60839844 C-69.97516449 108.45572037 -69.97156921 109.3030423 -69.96786499 110.17604065 C-69.97823299 115.96138729 -69.97823299 115.96138729 -71.09228516 117.07543945 C-77.69228516 117.07543945 -84.29228516 117.07543945 -91.09228516 117.07543945 C-91.09228516 82.09543945 -91.09228516 47.11543945 -91.09228516 11.07543945 C-95.38228516 11.07543945 -99.67228516 11.07543945 -104.09228516 11.07543945 C-104.09228516 46.05543945 -104.09228516 81.03543945 -104.09228516 117.07543945 C-111.02228516 117.07543945 -117.95228516 117.07543945 -125.09228516 117.07543945 C-125.09228516 90.67543945 -125.09228516 64.27543945 -125.09228516 37.07543945 C-129.71228516 37.07543945 -134.33228516 37.07543945 -139.09228516 37.07543945 C-139.07007904 38.08640182 -139.04787292 39.0973642 -139.0249939 40.13896179 C-138.82136322 49.71471207 -138.67194237 59.29001744 -138.57416344 68.86744976 C-138.52220007 73.79032529 -138.45184637 78.71143908 -138.33789062 83.63330078 C-138.22839947 88.39268327 -138.1692726 93.15038305 -138.14351273 97.91092873 C-138.12518183 99.71745076 -138.08938567 101.52389134 -138.03498459 103.32968712 C-137.70245411 114.83630621 -138.75618594 121.74076835 -146.60113525 130.44122314 C-147.42321472 131.31051453 -148.24529419 132.17980591 -149.09228516 133.07543945 C-150.2758989 134.66950435 -151.43701897 136.28112319 -152.55322266 137.9230957 C-153.04435547 138.63014648 -153.53548828 139.33719727 -154.04150391 140.06567383 C-155.01597205 141.48198986 -155.98990605 142.89867352 -156.96337891 144.31567383 C-159.44397253 147.88442119 -161.86129419 151.12773443 -165.09228516 154.07543945 C-164.71982561 149.50137489 -163.65537715 145.67156952 -162.03369141 141.37231445 C-156.71223047 126.97662876 -155.05968586 118.1685567 -161.27978516 104.0534668 C-169.03069854 85.18390542 -164.23619645 59.09399786 -156.76025391 40.8684082 C-152.69240912 31.41841793 -147.79692572 22.8858558 -141.09228516 15.07543945 C-140.40263672 14.25301758 -139.71298828 13.4305957 -139.00244141 12.58325195 C-104.60332228 -27.19639723 -41.09400436 -33.08395388 0 0 Z " fill="#2E84FF" transform="translate(181.09228515625,47.924560546875)"/>
<path d="M0 0 C1.73728552 0.02240802 3.47464737 0.03947708 5.21203613 0.05145264 C9.76465687 0.09707215 14.31261408 0.21474167 18.86340332 0.34790039 C23.51506451 0.47110974 28.1674867 0.52555755 32.8203125 0.5859375 C41.93433057 0.71427698 51.0449012 0.91881386 60.15625 1.171875 C60.01252786 2.5912346 59.86475897 4.01018473 59.71533203 5.42895508 C59.59256393 6.61428581 59.59256393 6.61428581 59.46731567 7.82356262 C56.26724635 31.98168431 39.98815607 53.83710994 21.50390625 68.72265625 C-1.04184868 85.6572027 -28.66886748 91.03691538 -56.390625 87.70703125 C-80.57442767 84.04723716 -102.37029523 70.92623422 -117.84375 52.171875 C-115.20703125 47.2890625 -115.20703125 47.2890625 -113.84375 45.171875 C-113.29138672 44.13667725 -112.73902344 43.10147949 -112.16992188 42.03491211 C-110.12926083 39.63455347 -109.07969017 39.20367105 -105.91117859 38.77667236 C-102.72864839 38.79377838 -99.57171439 38.90912154 -96.39601707 39.11643028 C-94.22740989 39.24817809 -92.06340973 39.32478969 -89.89167786 39.38423157 C-83.72242599 39.55381907 -77.56028265 39.74672017 -71.40161133 40.15551758 C-54.26920707 41.78626449 -54.26920707 41.78626449 -38.92730713 35.82867432 C-32.32519211 28.14895164 -28.39033264 18.89313841 -24.30490112 9.71463013 C-18.58133383 -1.08847165 -10.93656762 -0.41510043 0 0 Z " fill="#05B0FF" transform="translate(157.84375,139.828125)"/>
</svg>
